<svg width="29.460938" height="23.625000" viewBox="0 0 29.4609 23.625" fill="none" xmlns="http://www.w3.org/2000/svg" xmlns:xlink="http://www.w3.org/1999/xlink">
	<desc>
			Created with Pixso.
	</desc>
	<defs/>
	<path id="“" d="M29.35 0.08Q29.26 0 29.08 0L18.23 0Q18.05 0 17.96 0.08Q17.85 0.18 17.85 0.39L17.85 11.13Q17.85 11.34 17.96 11.44Q18.05 11.53 18.23 11.53L23.6 11.53Q23.6 12.79 23.16 13.89Q22.75 14.94 21.93 15.84Q20.98 16.87 19.81 17.32Q18.9 17.67 17.85 17.67L17.85 23.62Q19.32 23.62 20.68 23.26Q22.19 22.86 23.57 22.03Q24.41 21.53 25.14 20.91Q26.72 19.59 27.84 17.71Q28.2 17.11 28.47 16.47Q29.46 14.21 29.46 11.53L29.46 0.39Q29.46 0.18 29.35 0.08ZM11.49 0.08Q11.4 0 11.22 0L0.37 0Q0.19 0 0.1 0.08Q0 0.18 0 0.39L0 11.13Q0 11.34 0.1 11.44Q0.19 11.53 0.37 11.53L5.74 11.53Q5.74 12.79 5.31 13.89Q4.89 14.94 4.07 15.84Q3.12 16.87 1.95 17.32Q1.04 17.67 0 17.67L0 23.62Q1.46 23.62 2.83 23.26Q4.33 22.86 5.71 22.03Q6.55 21.53 7.28 20.91Q8.86 19.59 9.98 17.71Q10.34 17.11 10.62 16.47Q11.6 14.21 11.6 11.53L11.6 0.39Q11.6 0.18 11.49 0.08Z" fill="#C6C5C6" fill-opacity="1.000000" fill-rule="evenodd"/>
</svg>
